<svg width="38" height="39" viewBox="0 0 38 39" fill="none" xmlns="http://www.w3.org/2000/svg">
<rect width="38" height="38" rx="5" fill="url(#paint0_linear_154_33)"/>
<path d="M14.056 30C13.992 30 13.96 29.936 13.96 29.808C13.96 29.68 13.992 29.616 14.056 29.616C14.7173 29.616 15.1973 29.5627 15.496 29.456C15.816 29.328 16.0293 29.1147 16.136 28.816C16.264 28.5173 16.328 28.048 16.328 27.408V20.208C16.328 19.632 16.2747 19.2373 16.168 19.024C16.0827 18.7893 15.88 18.64 15.56 18.576C15.2613 18.4907 14.7173 18.448 13.928 18.448C13.864 18.448 13.832 18.384 13.832 18.256C13.832 18.128 13.864 18.064 13.928 18.064C14.8453 18.064 15.464 17.968 15.784 17.776C16.104 17.5627 16.2747 17.1787 16.296 16.624C16.4027 13.168 17.0213 10.6613 18.152 9.104C19.304 7.54667 20.9893 6.768 23.208 6.768C24.2747 6.768 25.16 6.93867 25.864 7.28C26.568 7.6 26.92 7.97333 26.92 8.4C26.92 8.67733 26.824 8.90133 26.632 9.072C26.44 9.22133 26.2053 9.296 25.928 9.296C25.7147 9.296 25.5227 9.25333 25.352 9.168C25.1813 9.06133 24.9893 8.86933 24.776 8.592C24.4133 8.144 24.0187 7.81333 23.592 7.6C23.1867 7.38667 22.696 7.28 22.12 7.28C20.8187 7.28 19.784 8.00533 19.016 9.456C18.248 10.8853 17.864 13.0507 17.864 15.952V27.408C17.864 28.0693 17.9387 28.5493 18.088 28.848C18.2373 29.1467 18.5253 29.3493 18.952 29.456C19.4 29.5627 20.1147 29.616 21.096 29.616C21.1387 29.616 21.16 29.68 21.16 29.808C21.16 29.936 21.1387 30 21.096 30L19.048 29.968C18.6213 29.9467 17.96 29.936 17.064 29.936L15.304 29.968C15.0053 29.9893 14.5893 30 14.056 30ZM22.024 19.184C21.256 18.992 20.4987 18.864 19.752 18.8C19.0267 18.736 18.184 18.704 17.224 18.704V18.032C18.5253 18.032 20.1573 17.9253 22.12 17.712C22.184 17.712 22.2373 17.7867 22.28 17.936C22.3227 18.064 22.344 18.2347 22.344 18.448C22.344 18.6187 22.312 18.7893 22.248 18.96C22.184 19.1307 22.1093 19.2053 22.024 19.184Z" fill="white"/>
<defs>
<linearGradient id="paint0_linear_154_33" x1="19" y1="0" x2="19" y2="38" gradientUnits="userSpaceOnUse">
<stop stop-color="#CCB5A7" stop-opacity="0.92"/>
<stop offset="1" stop-color="#C5A38E" stop-opacity="0.92"/>
</linearGradient>
</defs>
</svg>
